<svg xmlns="http://www.w3.org/2000/svg" xmlns:xlink="http://www.w3.org/1999/xlink" viewBox="58.72 58.96 165.76 165.76"><defs><path id="a" d="M3.094-6.25c-.25 0-.485.14-.64.313-.048.078-.079.125-.11.187L.28 0l.563-.016.765-2.109 3.063-.047.812 2.094h.579l-2.22-5.688a1 1 0 0 0-.124-.187.83.83 0 0 0-.625-.297m-.266.719a.28.28 0 0 1 .266-.157.3.3 0 0 1 .265.157l1.125 2.828-2.687.031Zm0 0"/><path id="b" d="m4.922.688.11.015.859-6.14-.547-.079-.672 4.844-3.453-5.437-.078-.016L.28.031.813.11l.671-4.812Zm0 0"/><path id="d" d="m4.906-.812.11-.016L4-6.953l-.547.094.797 4.828-4.906-4.172-.078.016L.28-.048.797-.14 0-4.937Zm0 0"/><path id="f" d="M2-5.875.266.078.78.234l1.344.391c1.703.484 3.36-.437 3.844-2.094.5-1.718-.39-3.36-2.11-3.86l-.39-.109-.953-.28Zm.36.672 1.343.39C5.25-4.358 5.922-3.14 5.47-1.624 5.079-.25 3.687.515 2.28.109L.937-.28Zm0 0"/><path id="g" d="m.563-6.703-1.579.516c-.359.125-.546.484-.437.828L.266-.094l.5-.156-.797-2.453 1.219-.406 2.359 1.953.64-.219-2.375-1.937c.844-.36 1.329-1.344 1.047-2.235A1.826 1.826 0 0 0 .563-6.703M-.953-5.516c-.031-.093.015-.125.11-.156l1.577-.516c.75-.187 1.36.047 1.61.813.234.719-.094 1.375-.828 1.61l-1.72.562Zm0 0"/><path id="h" d="M5.438-4.344a.76.76 0 0 0-.688.016c-.078.031-.14.078-.187.11L.25.108l.516.235L2.375-1.25 5.156.016 5 2.25l.531.25.407-6.11c-.016-.062-.016-.109-.047-.203a.77.77 0 0 0-.453-.53m-.532.547a.28.28 0 0 1 .313-.031.24.24 0 0 1 .156.25l-.172 3.03-2.437-1.11Zm0 0"/><path id="k" d="m.734-7.172-2.484 1.14a.683.683 0 0 0-.312.891l2.03 4.407c.157.328.563.5.876.343l2.484-1.14-.219-.485L.625-.875C.563-.844.5-.875.453-.953L-.563-3.156l1.594-.735-.218-.484-1.594.734-.797-1.718a.14.14 0 0 1 .047-.172l.125-.047-.047.016 2.406-1.11Zm0 0"/><path id="l" d="m4.031 2.906.094.063L7.75-2.062l-.453-.329-2.86 3.97-.5-6.423-.062-.031L.235.172l.421.297L3.5-3.47Zm0 0"/><path id="n" d="m-2.281-5.25.031-.016L0-6.734l-.297-.47c-.766.5-1.531 1-2.312 1.5-.313.204-.375.595-.172.907L.234-.157l.454-.28L-1-3.031l1.453-.953-.281-.438-1.453.953-1.047-1.61c-.047-.062-.016-.14.047-.171m0 0"/><path id="q" d="M6.75-2.094a3.093 3.093 0 0 0-4.39.078C1.155-.78 1.202 1.156 2.437 2.36c1.28 1.235 3.14 1.204 4.374-.078a3.09 3.09 0 0 0-.062-4.375m-.375.39a2.54 2.54 0 0 1 .063 3.626c-1.11 1.14-2.594 1.047-3.61.078C1.75.953 1.703-.61 2.734-1.672c.985-1.016 2.625-1.016 3.641-.031m0 0"/><path id="r" d="M-1.797-6.844c-1.265 1.188-1.297 3.157-.125 4.407a3.094 3.094 0 0 0 4.39.109c1.298-1.219 1.345-3.094.11-4.39a3.09 3.09 0 0 0-4.375-.126m.39.407c1.048-.985 2.626-.954 3.61.093 1.094 1.157.938 2.64-.078 3.61-1.094 1.03-2.64.984-3.672-.094-.953-1.016-.89-2.625.14-3.61m0 0"/><path id="s" d="M-4.516-4.25.188-.219l.343-.39-4.703-4.032Zm0 0"/><path id="v" d="M3.063 3.906 3.125 4 8.015.172l-.328-.438L3.829 2.75 5.11-3.547l-.046-.062L.172.219.5.64l3.828-3Zm0 0"/><path id="w" d="M-4.86-3.86.173-.233.47-.655l.828-1.14C2.328-3.235 2-5.126.594-6.142c-1.438-1.03-3.281-.734-4.328.72l-.22.343-.608.797Zm.735-.109.828-1.14C-2.359-6.422-1-6.625.281-5.703 1.453-4.86 1.703-3.297.86-2.11L.031-.97Zm0 0"/><path id="x" d="M6.969-.203a.93.93 0 0 0-.578-.422h-.203L.14.25l.265.484 2.22-.312 1.484 2.687-1.468 1.704.28.5L6.907.688C6.938.625 6.97.594 7 .484a.82.82 0 0 0-.031-.687m-.766.11a.31.31 0 0 1 .281.156c.047.093.032.218-.015.312L4.484 2.688 3.188.344Zm0 0"/><path id="A" d="m-5.328-3.187 3.5 1.874a2.235 2.235 0 0 0 3.031-.921c.61-1.157.234-2.422-.906-3.047-.406-.188-.781-.39-1.188-.61-.765-.406-1.53-.843-2.312-1.265l-.266.484 3.5 1.875a1.69 1.69 0 0 1 .703 2.313c-.484.89-1.437 1.187-2.312.703l-3.5-1.875Zm0 0"/><path id="B" d="m5.89-1.937-.515.187.516 1.328L.609 1.594l.188.5L6.078.078l.5 1.313.516-.188Zm0 0"/><path id="E" d="m-5.797-2.219.531.172.438-1.344 5.36 1.782.171-.516-5.36-1.781.454-1.328-.531-.172Zm0 0"/><path id="F" d="M6.797 1.938A3.096 3.096 0 0 0 3.078-.406 3.1 3.1 0 0 0 .75 3.313C1.14 5.047 2.734 6.03 4.469 5.64c1.672-.375 2.703-2.047 2.328-3.703m-.531.125a2.54 2.54 0 0 1-1.938 3.062c-1.547.36-2.734-.547-3.062-1.922C.938 1.734 1.75.438 3.203.11c1.375-.312 2.75.563 3.063 1.954m0 0"/><path id="I" d="M-5.578-3.469c-.063.25-.047.531.016.766.078.25.187.469.375.625.187.172.406.281.671.344.313.078.625.03.954-.094.203-.078.546-.328 1.03-.734.391-.438.735-.704 1.048-.829a1.1 1.1 0 0 1 .625-.062c.156.031.328.14.453.25.125.125.219.297.265.469.063.218.078.39.016.593-.094.47-.5.813-1.25 1l.188.579c.515-.141.89-.344 1.14-.579.25-.265.438-.546.516-.921.11-.454.031-.891-.203-1.282a1.55 1.55 0 0 0-1-.75A1.42 1.42 0 0 0-1.61-4c-.297.125-.688.422-1.188.844-.406.344-.672.562-.765.625-.157.11-.313.156-.454.187a.9.9 0 0 1-.406.016c-.203-.047-.344-.172-.453-.36-.125-.171-.156-.39-.11-.624.048-.188.157-.36.266-.485.125-.125.375-.281.719-.437l-.25-.547c-.453.172-.734.375-.937.593a1.5 1.5 0 0 0-.391.72m0 0"/><clipPath id="J"><path d="M72 138h6v7h-6Zm0 0"/></clipPath><clipPath id="M"><path d="M74.953 144.488a2.806 2.806 0 1 1 0-5.613 2.805 2.805 0 0 1 2.805 2.805 2.81 2.81 0 0 1-2.805 2.808" clip-rule="evenodd"/></clipPath><clipPath id="P"><path d="M206 138h7v7h-7Zm0 0"/></clipPath><clipPath id="R"><path d="M209.66 144.457a2.81 2.81 0 0 1-2.805-2.809 2.805 2.805 0 0 1 2.805-2.804 2.806 2.806 0 1 1 0 5.613" clip-rule="evenodd"/></clipPath><clipPath id="T"><path d="M115 100h52v83h-52Zm0 0"/></clipPath><clipPath id="Y"><path d="m118.086 141.691 25.371.032 1.941 3.507h-27.144Zm.008 41.141-2.977.016.113-82.547h51.32l.012 2.926-48.433.027Zm0 0"/></clipPath><clipPath id="aa"><path d="M157 118h14v16h-14Zm0 0"/></clipPath><clipPath id="ab"><path d="M163.969 118.184c1.312.27 1.972 1.367 2.676 2.543q.34.564.652 1.12c.832 1.473 1.68 2.954 2.418 4.544.816 1.754 1.55 3.445.312 5.265-.441.645-1.011 1.2-2.047 1.438-1.542.355-2.8-.281-3.832-1.207l-.925-.848c-1.934-1.75-2.563-2.516-4.024-4.644-.27-.395-.472-.672-.707-1.07-2.234-3.81 1.992-7.864 5.477-7.141" clip-rule="evenodd"/></clipPath><linearGradient id="N" x1="72.281" x2="77.905" y1="141.52" y2="141.52" gradientTransform="matrix(.99811 0 0 -.99811 0 282.93)" gradientUnits="userSpaceOnUse"><stop offset="0" stop-color="#a26463"/><stop offset=".008" stop-color="#a26463"/><stop offset=".016" stop-color="#a36564"/><stop offset=".023" stop-color="#a46564"/><stop offset=".031" stop-color="#a46665"/><stop offset=".039" stop-color="#a56665"/><stop offset=".047" stop-color="#a56766"/><stop offset=".055" stop-color="#a66866"/><stop offset=".063" stop-color="#a76867"/><stop offset=".07" stop-color="#a76967"/><stop offset=".078" stop-color="#a86968"/><stop offset=".086" stop-color="#a96a69"/><stop offset=".094" stop-color="#a96a69"/><stop offset=".102" stop-color="#aa6b6a"/><stop offset=".109" stop-color="#aa6b6a"/><stop offset=".117" stop-color="#ab6c6b"/><stop offset=".125" stop-color="#ac6c6b"/><stop offset=".133" stop-color="#ac6d6c"/><stop offset=".141" stop-color="#ad6e6c"/><stop offset=".148" stop-color="#ae6e6d"/><stop offset=".156" stop-color="#ae6f6d"/><stop offset=".164" stop-color="#af6f6e"/><stop offset=".172" stop-color="#af706e"/><stop offset=".18" stop-color="#b0706f"/><stop offset=".188" stop-color="#b1716f"/><stop offset=".195" stop-color="#b17170"/><stop offset=".203" stop-color="#b27271"/><stop offset=".211" stop-color="#b37371"/><stop offset=".219" stop-color="#b37372"/><stop offset=".227" stop-color="#b47472"/><stop offset=".234" stop-color="#b47473"/><stop offset=".242" stop-color="#b57573"/><stop offset=".25" stop-color="#b67574"/><stop offset=".258" stop-color="#b67674"/><stop offset=".266" stop-color="#b77675"/><stop offset=".273" stop-color="#b87775"/><stop offset=".281" stop-color="#b87776"/><stop offset=".289" stop-color="#b97876"/><stop offset=".297" stop-color="#b97977"/><stop offset=".305" stop-color="#ba7977"/><stop offset=".313" stop-color="#bb7a78"/><stop offset=".32" stop-color="#bb7a79"/><stop offset=".328" stop-color="#bc7b79"/><stop offset=".336" stop-color="#bd7b7a"/><stop offset=".344" stop-color="#bd7c7a"/><stop offset=".352" stop-color="#be7c7b"/><stop offset=".359" stop-color="#be7d7b"/><stop offset=".367" stop-color="#bf7d7c"/><stop offset=".375" stop-color="#c07e7c"/><stop offset=".383" stop-color="#c07f7d"/><stop offset=".391" stop-color="#c17f7d"/><stop offset=".398" stop-color="#c2807e"/><stop offset=".406" stop-color="#c2807e"/><stop offset=".414" stop-color="#c3817f"/><stop offset=".422" stop-color="#c3817f"/><stop offset=".43" stop-color="#c48280"/><stop offset=".438" stop-color="#c58280"/><stop offset=".445" stop-color="#c58381"/><stop offset=".453" stop-color="#c68382"/><stop offset=".461" stop-color="#c78482"/><stop offset=".469" stop-color="#c78583"/><stop offset=".477" stop-color="#c88583"/><stop offset=".484" stop-color="#c88684"/><stop offset=".492" stop-color="#c98684"/><stop offset=".5" stop-color="#ca8785"/><stop offset=".508" stop-color="#ca8785"/><stop offset=".516" stop-color="#cb8886"/><stop offset=".523" stop-color="#cc8886"/><stop offset=".531" stop-color="#cc8987"/><stop offset=".539" stop-color="#cd8a87"/><stop offset=".547" stop-color="#cd8a88"/><stop offset=".555" stop-color="#ce8b88"/><stop offset=".563" stop-color="#cf8b89"/><stop offset=".57" stop-color="#cf8c8a"/><stop offset=".578" stop-color="#d08c8a"/><stop offset=".586" stop-color="#d18d8b"/><stop offset=".594" stop-color="#d18d8b"/><stop offset=".602" stop-color="#d28e8c"/><stop offset=".609" stop-color="#d28e8c"/><stop offset=".617" stop-color="#d38f8d"/><stop offset=".625" stop-color="#d4908d"/><stop offset=".633" stop-color="#d4908e"/><stop offset=".641" stop-color="#d5918e"/><stop offset=".648" stop-color="#d6918f"/><stop offset=".656" stop-color="#d6928f"/><stop offset=".664" stop-color="#d79290"/><stop offset=".672" stop-color="#d79390"/><stop offset=".68" stop-color="#d89391"/><stop offset=".688" stop-color="#d99492"/><stop offset=".695" stop-color="#d99492"/><stop offset=".703" stop-color="#da9593"/><stop offset=".711" stop-color="#db9693"/><stop offset=".719" stop-color="#db9694"/><stop offset=".727" stop-color="#dc9794"/><stop offset=".734" stop-color="#dc9795"/><stop offset=".742" stop-color="#dd9895"/><stop offset=".75" stop-color="#de9896"/><stop offset=".758" stop-color="#de9996"/><stop offset=".766" stop-color="#df9997"/><stop offset=".773" stop-color="#e09a97"/><stop offset=".781" stop-color="#e09b98"/><stop offset=".789" stop-color="#e19b98"/><stop offset=".797" stop-color="#e19c99"/><stop offset=".805" stop-color="#e29c9a"/><stop offset=".813" stop-color="#e39d9a"/><stop offset=".82" stop-color="#e39d9b"/><stop offset=".828" stop-color="#e49e9b"/><stop offset=".836" stop-color="#e59e9c"/><stop offset=".844" stop-color="#e59f9c"/><stop offset=".852" stop-color="#e69f9d"/><stop offset=".859" stop-color="#e6a09d"/><stop offset=".867" stop-color="#e7a19e"/><stop offset=".875" stop-color="#e8a19e"/><stop offset=".883" stop-color="#e8a29f"/><stop offset=".891" stop-color="#e9a29f"/><stop offset=".898" stop-color="#eaa3a0"/><stop offset=".906" stop-color="#eaa3a0"/><stop offset=".914" stop-color="#eba4a1"/><stop offset=".922" stop-color="#eba4a1"/><stop offset=".93" stop-color="#eca5a2"/><stop offset=".938" stop-color="#eda5a3"/><stop offset=".945" stop-color="#eda6a3"/><stop offset=".953" stop-color="#eea7a4"/><stop offset=".961" stop-color="#efa7a4"/><stop offset=".969" stop-color="#efa8a5"/><stop offset=".977" stop-color="#f0a8a5"/><stop offset=".984" stop-color="#f0a9a6"/><stop offset=".992" stop-color="#f1a9a6"/><stop offset="1" stop-color="#f2aaa7"/></linearGradient><linearGradient id="S" x1="207.246" x2="212.869" y1="141.55" y2="141.55" gradientTransform="matrix(.99811 0 0 -.99811 0 282.93)" gradientUnits="userSpaceOnUse"><stop offset="0" stop-color="#a26463"/><stop offset=".008" stop-color="#a26463"/><stop offset=".016" stop-color="#a36564"/><stop offset=".023" stop-color="#a36564"/><stop offset=".031" stop-color="#a46665"/><stop offset=".039" stop-color="#a56665"/><stop offset=".047" stop-color="#a56766"/><stop offset=".055" stop-color="#a66766"/><stop offset=".063" stop-color="#a76867"/><stop offset=".07" stop-color="#a76967"/><stop offset=".078" stop-color="#a86968"/><stop offset=".086" stop-color="#a86a68"/><stop offset=".094" stop-color="#a96a69"/><stop offset=".102" stop-color="#aa6b6a"/><stop offset=".109" stop-color="#aa6b6a"/><stop offset=".117" stop-color="#ab6c6b"/><stop offset=".125" stop-color="#ac6c6b"/><stop offset=".133" stop-color="#ac6d6c"/><stop offset=".141" stop-color="#ad6e6c"/><stop offset=".148" stop-color="#ad6e6d"/><stop offset=".156" stop-color="#ae6f6d"/><stop offset=".164" stop-color="#af6f6e"/><stop offset=".172" stop-color="#af706e"/><stop offset=".18" stop-color="#b0706f"/><stop offset=".188" stop-color="#b1716f"/><stop offset=".195" stop-color="#b17170"/><stop offset=".203" stop-color="#b27270"/><stop offset=".211" stop-color="#b27271"/><stop offset=".219" stop-color="#b37372"/><stop offset=".227" stop-color="#b47472"/><stop offset=".234" stop-color="#b47473"/><stop offset=".242" stop-color="#b57573"/><stop offset=".25" stop-color="#b67574"/><stop offset=".258" stop-color="#b67674"/><stop offset=".266" stop-color="#b77675"/><stop offset=".273" stop-color="#b77775"/><stop offset=".281" stop-color="#b87776"/><stop offset=".289" stop-color="#b97876"/><stop offset=".297" stop-color="#b97877"/><stop offset=".305" stop-color="#ba7977"/><stop offset=".313" stop-color="#bb7a78"/><stop offset=".32" stop-color="#bb7a78"/><stop offset=".328" stop-color="#bc7b79"/><stop offset=".336" stop-color="#bc7b7a"/><stop offset=".344" stop-color="#bd7c7a"/><stop offset=".352" stop-color="#be7c7b"/><stop offset=".359" stop-color="#be7d7b"/><stop offset=".367" stop-color="#bf7d7c"/><stop offset=".375" stop-color="#c07e7c"/><stop offset=".383" stop-color="#c07e7d"/><stop offset=".391" stop-color="#c17f7d"/><stop offset=".398" stop-color="#c1807e"/><stop offset=".406" stop-color="#c2807e"/><stop offset=".414" stop-color="#c3817f"/><stop offset=".422" stop-color="#c3817f"/><stop offset=".43" stop-color="#c48280"/><stop offset=".438" stop-color="#c58280"/><stop offset=".445" stop-color="#c58381"/><stop offset=".453" stop-color="#c68381"/><stop offset=".461" stop-color="#c68482"/><stop offset=".469" stop-color="#c78583"/><stop offset=".477" stop-color="#c88583"/><stop offset=".484" stop-color="#c88684"/><stop offset=".492" stop-color="#c98684"/><stop offset=".5" stop-color="#ca8785"/><stop offset=".508" stop-color="#ca8785"/><stop offset=".516" stop-color="#cb8886"/><stop offset=".523" stop-color="#cb8886"/><stop offset=".531" stop-color="#cc8987"/><stop offset=".539" stop-color="#cd8987"/><stop offset=".547" stop-color="#cd8a88"/><stop offset=".555" stop-color="#ce8b88"/><stop offset=".563" stop-color="#cf8b89"/><stop offset=".57" stop-color="#cf8c89"/><stop offset=".578" stop-color="#d08c8a"/><stop offset=".586" stop-color="#d08d8b"/><stop offset=".594" stop-color="#d18d8b"/><stop offset=".602" stop-color="#d28e8c"/><stop offset=".609" stop-color="#d28e8c"/><stop offset=".617" stop-color="#d38f8d"/><stop offset=".625" stop-color="#d48f8d"/><stop offset=".633" stop-color="#d4908e"/><stop offset=".641" stop-color="#d5918e"/><stop offset=".648" stop-color="#d6918f"/><stop offset=".656" stop-color="#d6928f"/><stop offset=".664" stop-color="#d79290"/><stop offset=".672" stop-color="#d79390"/><stop offset=".68" stop-color="#d89391"/><stop offset=".688" stop-color="#d99491"/><stop offset=".695" stop-color="#d99492"/><stop offset=".703" stop-color="#da9593"/><stop offset=".711" stop-color="#db9693"/><stop offset=".719" stop-color="#db9694"/><stop offset=".727" stop-color="#dc9794"/><stop offset=".734" stop-color="#dc9795"/><stop offset=".742" stop-color="#dd9895"/><stop offset=".75" stop-color="#de9896"/><stop offset=".758" stop-color="#de9996"/><stop offset=".766" stop-color="#df9997"/><stop offset=".773" stop-color="#e09a97"/><stop offset=".781" stop-color="#e09a98"/><stop offset=".789" stop-color="#e19b98"/><stop offset=".797" stop-color="#e19c99"/><stop offset=".805" stop-color="#e29c99"/><stop offset=".813" stop-color="#e39d9a"/><stop offset=".82" stop-color="#e39d9b"/><stop offset=".828" stop-color="#e49e9b"/><stop offset=".836" stop-color="#e59e9c"/><stop offset=".844" stop-color="#e59f9c"/><stop offset=".852" stop-color="#e69f9d"/><stop offset=".859" stop-color="#e6a09d"/><stop offset=".867" stop-color="#e7a09e"/><stop offset=".875" stop-color="#e8a19e"/><stop offset=".883" stop-color="#e8a29f"/><stop offset=".891" stop-color="#e9a29f"/><stop offset=".898" stop-color="#eaa3a0"/><stop offset=".906" stop-color="#eaa3a0"/><stop offset=".914" stop-color="#eba4a1"/><stop offset=".922" stop-color="#eba4a1"/><stop offset=".93" stop-color="#eca5a2"/><stop offset=".938" stop-color="#eda5a2"/><stop offset=".945" stop-color="#eda6a3"/><stop offset=".953" stop-color="#eea7a4"/><stop offset=".961" stop-color="#efa7a4"/><stop offset=".969" stop-color="#efa8a5"/><stop offset=".977" stop-color="#f0a8a5"/><stop offset=".984" stop-color="#f0a9a6"/><stop offset=".992" stop-color="#f1a9a6"/><stop offset="1" stop-color="#f2aaa7"/></linearGradient><linearGradient id="Z" x1="104.808" x2="177.402" y1="169.039" y2="114.21" gradientTransform="matrix(.99811 0 0 -.99811 0 282.93)" gradientUnits="userSpaceOnUse"><stop offset="0" stop-color="#c37977"/><stop offset=".125" stop-color="#c37977"/><stop offset=".141" stop-color="#c37977"/><stop offset=".145" stop-color="#c47a78"/><stop offset=".148" stop-color="#c47a78"/><stop offset=".152" stop-color="#c57b79"/><stop offset=".156" stop-color="#c67c7a"/><stop offset=".16" stop-color="#c77d7b"/><stop offset=".164" stop-color="#c87f7c"/><stop offset=".168" stop-color="#c9807d"/><stop offset=".172" stop-color="#cb817f"/><stop offset=".176" stop-color="#cc8280"/><stop offset=".18" stop-color="#cd8381"/><stop offset=".184" stop-color="#ce8482"/><stop offset=".188" stop-color="#cf8583"/><stop offset=".191" stop-color="#d08684"/><stop offset=".195" stop-color="#d18785"/><stop offset=".199" stop-color="#d28886"/><stop offset=".203" stop-color="#d38a87"/><stop offset=".207" stop-color="#d48b88"/><stop offset=".211" stop-color="#d58c89"/><stop offset=".215" stop-color="#d68d8a"/><stop offset=".219" stop-color="#d78e8b"/><stop offset=".223" stop-color="#d98f8d"/><stop offset=".227" stop-color="#da908e"/><stop offset=".23" stop-color="#db918f"/><stop offset=".234" stop-color="#dc9290"/><stop offset=".238" stop-color="#dd9391"/><stop offset=".242" stop-color="#de9592"/><stop offset=".246" stop-color="#df9693"/><stop offset=".25" stop-color="#e09794"/><stop offset=".254" stop-color="#e19895"/><stop offset=".258" stop-color="#e29996"/><stop offset=".262" stop-color="#e39a97"/><stop offset=".266" stop-color="#e49b98"/><stop offset=".27" stop-color="#e59c99"/><stop offset=".273" stop-color="#e79d9b"/><stop offset=".277" stop-color="#e89e9c"/><stop offset=".281" stop-color="#e9a09d"/><stop offset=".285" stop-color="#eaa19e"/><stop offset=".289" stop-color="#eba29f"/><stop offset=".293" stop-color="#eca3a0"/><stop offset=".297" stop-color="#eda4a1"/><stop offset=".301" stop-color="#eea5a2"/><stop offset=".305" stop-color="#efa6a3"/><stop offset=".309" stop-color="#f0a7a4"/><stop offset=".313" stop-color="#f1a8a5"/><stop offset=".316" stop-color="#f2a9a6"/><stop offset=".32" stop-color="#f3aba7"/><stop offset=".324" stop-color="#f3aaa7"/><stop offset=".328" stop-color="#f2a9a6"/><stop offset=".332" stop-color="#f1a8a5"/><stop offset=".336" stop-color="#f0a7a4"/><stop offset=".34" stop-color="#efa6a3"/><stop offset=".344" stop-color="#eea5a2"/><stop offset=".348" stop-color="#eda4a1"/><stop offset=".352" stop-color="#eca3a0"/><stop offset=".355" stop-color="#eba19f"/><stop offset=".359" stop-color="#e9a09d"/><stop offset=".363" stop-color="#e89f9c"/><stop offset=".367" stop-color="#e79e9b"/><stop offset=".371" stop-color="#e69d9a"/><stop offset=".375" stop-color="#e59c99"/><stop offset=".379" stop-color="#e49b98"/><stop offset=".383" stop-color="#e39997"/><stop offset=".387" stop-color="#e29896"/><stop offset=".391" stop-color="#e09794"/><stop offset=".395" stop-color="#df9693"/><stop offset=".398" stop-color="#de9592"/><stop offset=".402" stop-color="#dd9491"/><stop offset=".406" stop-color="#dc9390"/><stop offset=".41" stop-color="#db918f"/><stop offset=".414" stop-color="#da908e"/><stop offset=".418" stop-color="#d98f8d"/><stop offset=".422" stop-color="#d78e8b"/><stop offset=".426" stop-color="#d68d8a"/><stop offset=".43" stop-color="#d58c89"/><stop offset=".434" stop-color="#d48b88"/><stop offset=".438" stop-color="#d38987"/><stop offset=".441" stop-color="#d28886"/><stop offset=".445" stop-color="#d18785"/><stop offset=".449" stop-color="#d08684"/><stop offset=".453" stop-color="#ce8583"/><stop offset=".457" stop-color="#cd8481"/><stop offset=".461" stop-color="#cc8280"/><stop offset=".465" stop-color="#cb817f"/><stop offset=".469" stop-color="#ca807e"/><stop offset=".473" stop-color="#c97f7d"/><stop offset=".477" stop-color="#c87e7c"/><stop offset=".48" stop-color="#c77d7b"/><stop offset=".484" stop-color="#c67c7a"/><stop offset=".488" stop-color="#c47a78"/><stop offset=".492" stop-color="#c37977"/><stop offset=".496" stop-color="#c47a78"/><stop offset=".5" stop-color="#c57b79"/><stop offset=".504" stop-color="#c67c7a"/><stop offset=".508" stop-color="#c87e7c"/><stop offset=".512" stop-color="#c97f7d"/><stop offset=".516" stop-color="#ca807e"/><stop offset=".52" stop-color="#cb817f"/><stop offset=".523" stop-color="#cc8280"/><stop offset=".527" stop-color="#cd8481"/><stop offset=".531" stop-color="#cf8583"/><stop offset=".535" stop-color="#d08684"/><stop offset=".539" stop-color="#d18785"/><stop offset=".543" stop-color="#d28886"/><stop offset=".547" stop-color="#d38a87"/><stop offset=".551" stop-color="#d48b88"/><stop offset=".555" stop-color="#d68c8a"/><stop offset=".559" stop-color="#d78d8b"/><stop offset=".563" stop-color="#d88e8c"/><stop offset=".566" stop-color="#d9908d"/><stop offset=".57" stop-color="#da918e"/><stop offset=".574" stop-color="#db928f"/><stop offset=".578" stop-color="#dd9391"/><stop offset=".582" stop-color="#de9492"/><stop offset=".586" stop-color="#df9693"/><stop offset=".59" stop-color="#e09794"/><stop offset=".594" stop-color="#e19895"/><stop offset=".598" stop-color="#e29996"/><stop offset=".602" stop-color="#e49a98"/><stop offset=".605" stop-color="#e59c99"/><stop offset=".609" stop-color="#e69d9a"/><stop offset=".613" stop-color="#e79e9b"/><stop offset=".617" stop-color="#e89f9c"/><stop offset=".621" stop-color="#e9a09d"/><stop offset=".625" stop-color="#eba29f"/><stop offset=".629" stop-color="#eca3a0"/><stop offset=".633" stop-color="#eda4a1"/><stop offset=".637" stop-color="#eea5a2"/><stop offset=".641" stop-color="#efa6a3"/><stop offset=".645" stop-color="#f1a8a5"/><stop offset=".648" stop-color="#f2a9a6"/><stop offset=".652" stop-color="#f3aaa7"/><stop offset=".656" stop-color="#f4aba8"/><stop offset=".66" stop-color="#f3aaa7"/><stop offset=".664" stop-color="#f2a9a6"/><stop offset=".668" stop-color="#f1a8a5"/><stop offset=".672" stop-color="#f0a7a4"/><stop offset=".676" stop-color="#efa6a3"/><stop offset=".68" stop-color="#eea5a2"/><stop offset=".684" stop-color="#eda4a1"/><stop offset=".688" stop-color="#eca3a0"/><stop offset=".691" stop-color="#eba29f"/><stop offset=".695" stop-color="#eaa19e"/><stop offset=".699" stop-color="#e9a09d"/><stop offset=".703" stop-color="#e99f9d"/><stop offset=".707" stop-color="#e89e9c"/><stop offset=".711" stop-color="#e79d9b"/><stop offset=".715" stop-color="#e69c9a"/><stop offset=".719" stop-color="#e59b99"/><stop offset=".723" stop-color="#e49a98"/><stop offset=".727" stop-color="#e39997"/><stop offset=".73" stop-color="#e29896"/><stop offset=".734" stop-color="#e19795"/><stop offset=".738" stop-color="#e09694"/><stop offset=".742" stop-color="#df9693"/><stop offset=".746" stop-color="#de9592"/><stop offset=".75" stop-color="#dd9491"/><stop offset=".754" stop-color="#dc9390"/><stop offset=".758" stop-color="#db928f"/><stop offset=".762" stop-color="#da918e"/><stop offset=".766" stop-color="#d9908d"/><stop offset=".77" stop-color="#d88f8c"/><stop offset=".773" stop-color="#d78e8b"/><stop offset=".777" stop-color="#d68d8a"/><stop offset=".781" stop-color="#d58c89"/><stop offset=".785" stop-color="#d48b88"/><stop offset=".789" stop-color="#d38a87"/><stop offset=".793" stop-color="#d28986"/><stop offset=".797" stop-color="#d18885"/><stop offset=".801" stop-color="#d08784"/><stop offset=".805" stop-color="#d08684"/><stop offset=".809" stop-color="#cf8583"/><stop offset=".813" stop-color="#ce8482"/><stop offset=".816" stop-color="#cd8381"/><stop offset=".82" stop-color="#cc8280"/><stop offset=".824" stop-color="#cb817f"/><stop offset=".828" stop-color="#ca807e"/><stop offset=".832" stop-color="#c97f7d"/><stop offset=".836" stop-color="#c87e7c"/><stop offset=".84" stop-color="#c77d7b"/><stop offset=".844" stop-color="#c67c7a"/><stop offset=".848" stop-color="#c57b79"/><stop offset=".852" stop-color="#c47a78"/><stop offset=".859" stop-color="#c47a78"/><stop offset=".875" stop-color="#c37977"/><stop offset="1" stop-color="#c37977"/></linearGradient><linearGradient id="ac" x1="173.429" x2="155.108" y1="162.418" y2="152.401" gradientTransform="matrix(.99811 0 0 -.99811 0 282.93)" gradientUnits="userSpaceOnUse"><stop offset="0" stop-color="#cf8583"/><stop offset=".125" stop-color="#cf8583"/><stop offset=".156" stop-color="#cf8583"/><stop offset=".164" stop-color="#cf8583"/><stop offset=".168" stop-color="#d18785"/><stop offset=".172" stop-color="#d28886"/><stop offset=".176" stop-color="#d38987"/><stop offset=".18" stop-color="#d48a88"/><stop offset=".184" stop-color="#d58b89"/><stop offset=".188" stop-color="#d68c8a"/><stop offset=".191" stop-color="#d78d8b"/><stop offset=".195" stop-color="#d88e8c"/><stop offset=".199" stop-color="#d98f8d"/><stop offset=".203" stop-color="#d9908d"/><stop offset=".207" stop-color="#da918e"/><stop offset=".211" stop-color="#db928f"/><stop offset=".215" stop-color="#dc9390"/><stop offset=".219" stop-color="#dd9491"/><stop offset=".223" stop-color="#de9592"/><stop offset=".227" stop-color="#df9693"/><stop offset=".23" stop-color="#e09794"/><stop offset=".234" stop-color="#e19895"/><stop offset=".238" stop-color="#e29996"/><stop offset=".242" stop-color="#e39a97"/><stop offset=".246" stop-color="#e49b98"/><stop offset=".25" stop-color="#e59c99"/><stop offset=".254" stop-color="#e69d9a"/><stop offset=".258" stop-color="#e79e9b"/><stop offset=".262" stop-color="#e89f9c"/><stop offset=".266" stop-color="#e9a09d"/><stop offset=".27" stop-color="#eaa19e"/><stop offset=".273" stop-color="#eba29f"/><stop offset=".277" stop-color="#eca3a0"/><stop offset=".281" stop-color="#eda4a1"/><stop offset=".285" stop-color="#eea5a2"/><stop offset=".289" stop-color="#efa6a3"/><stop offset=".293" stop-color="#f0a7a4"/><stop offset=".297" stop-color="#f1a8a5"/><stop offset=".301" stop-color="#f2a9a6"/><stop offset=".305" stop-color="#f3aaa7"/><stop offset=".309" stop-color="#f4aba8"/><stop offset=".313" stop-color="#f5aca9"/><stop offset=".316" stop-color="#f6adaa"/><stop offset=".32" stop-color="#f7aeab"/><stop offset=".324" stop-color="#f8afac"/><stop offset=".328" stop-color="#f9b0ad"/><stop offset=".332" stop-color="#f8afac"/><stop offset=".336" stop-color="#f7aeab"/><stop offset=".34" stop-color="#f6adaa"/><stop offset=".344" stop-color="#f5aca9"/><stop offset=".348" stop-color="#f5aca9"/><stop offset=".352" stop-color="#f4aba8"/><stop offset=".355" stop-color="#f3aaa7"/><stop offset=".359" stop-color="#f2a9a6"/><stop offset=".363" stop-color="#f1a8a5"/><stop offset=".367" stop-color="#f0a7a4"/><stop offset=".371" stop-color="#efa6a3"/><stop offset=".375" stop-color="#eea5a3"/><stop offset=".379" stop-color="#eea4a2"/><stop offset=".383" stop-color="#eda3a1"/><stop offset=".387" stop-color="#eca3a0"/><stop offset=".391" stop-color="#eba29f"/><stop offset=".395" stop-color="#eaa19e"/><stop offset=".398" stop-color="#e9a09d"/><stop offset=".402" stop-color="#e89f9c"/><stop offset=".406" stop-color="#e89e9c"/><stop offset=".41" stop-color="#e79d9b"/><stop offset=".414" stop-color="#e69c9a"/><stop offset=".418" stop-color="#e59b99"/><stop offset=".422" stop-color="#e49a98"/><stop offset=".426" stop-color="#e39a97"/><stop offset=".43" stop-color="#e29996"/><stop offset=".434" stop-color="#e19895"/><stop offset=".438" stop-color="#e19795"/><stop offset=".441" stop-color="#e09694"/><stop offset=".445" stop-color="#df9593"/><stop offset=".449" stop-color="#de9492"/><stop offset=".453" stop-color="#dd9391"/><stop offset=".457" stop-color="#dc9290"/><stop offset=".461" stop-color="#db918f"/><stop offset=".465" stop-color="#da918e"/><stop offset=".469" stop-color="#da908e"/><stop offset=".473" stop-color="#d98f8d"/><stop offset=".477" stop-color="#d88e8c"/><stop offset=".48" stop-color="#d98f8d"/><stop offset=".484" stop-color="#da908e"/><stop offset=".488" stop-color="#db918f"/><stop offset=".492" stop-color="#db928f"/><stop offset=".496" stop-color="#dc9290"/><stop offset=".5" stop-color="#dd9391"/><stop offset=".504" stop-color="#de9492"/><stop offset=".508" stop-color="#df9593"/><stop offset=".512" stop-color="#e09694"/><stop offset=".516" stop-color="#e09794"/><stop offset=".52" stop-color="#e19895"/><stop offset=".523" stop-color="#e29896"/><stop offset=".527" stop-color="#e39997"/><stop offset=".531" stop-color="#e49a98"/><stop offset=".535" stop-color="#e59b99"/><stop offset=".539" stop-color="#e59c99"/><stop offset=".543" stop-color="#e69d9a"/><stop offset=".547" stop-color="#e79e9b"/><stop offset=".551" stop-color="#e89e9c"/><stop offset=".555" stop-color="#e99f9d"/><stop offset=".559" stop-color="#eaa09e"/><stop offset=".563" stop-color="#eaa19e"/><stop offset=".566" stop-color="#eba29f"/><stop offset=".57" stop-color="#eca3a0"/><stop offset=".574" stop-color="#eda4a1"/><stop offset=".578" stop-color="#eea5a2"/><stop offset=".582" stop-color="#efa5a3"/><stop offset=".586" stop-color="#efa6a3"/><stop offset=".59" stop-color="#f0a7a4"/><stop offset=".594" stop-color="#f1a8a5"/><stop offset=".598" stop-color="#f2a9a6"/><stop offset=".602" stop-color="#f3aaa7"/><stop offset=".605" stop-color="#f4aba8"/><stop offset=".609" stop-color="#f4aba8"/><stop offset=".613" stop-color="#f5aca9"/><stop offset=".617" stop-color="#f6adaa"/><stop offset=".621" stop-color="#f7aeab"/><stop offset=".625" stop-color="#f8afac"/><stop offset=".632" stop-color="#f8afac"/><stop offset=".633" stop-color="#f8afac"/><stop offset=".637" stop-color="#f7aeab"/><stop offset=".641" stop-color="#f6adaa"/><stop offset=".645" stop-color="#f5aca9"/><stop offset=".648" stop-color="#f4aba8"/><stop offset=".652" stop-color="#f4aaa8"/><stop offset=".656" stop-color="#f3a9a7"/><stop offset=".66" stop-color="#f2a9a6"/><stop offset=".664" stop-color="#f1a8a5"/><stop offset=".668" stop-color="#f0a7a4"/><stop offset=".672" stop-color="#efa6a3"/><stop offset=".676" stop-color="#eea5a2"/><stop offset=".68" stop-color="#eda4a1"/><stop offset=".684" stop-color="#eca3a0"/><stop offset=".688" stop-color="#eba29f"/><stop offset=".691" stop-color="#eaa19e"/><stop offset=".695" stop-color="#e9a09d"/><stop offset=".699" stop-color="#e89f9c"/><stop offset=".703" stop-color="#e79e9b"/><stop offset=".707" stop-color="#e69d9a"/><stop offset=".711" stop-color="#e59c99"/><stop offset=".715" stop-color="#e49b98"/><stop offset=".719" stop-color="#e39a97"/><stop offset=".723" stop-color="#e39997"/><stop offset=".727" stop-color="#e29896"/><stop offset=".73" stop-color="#e19795"/><stop offset=".734" stop-color="#e09694"/><stop offset=".738" stop-color="#df9593"/><stop offset=".742" stop-color="#de9492"/><stop offset=".746" stop-color="#dd9391"/><stop offset=".75" stop-color="#dc9290"/><stop offset=".754" stop-color="#db918f"/><stop offset=".758" stop-color="#da908e"/><stop offset=".762" stop-color="#d98f8d"/><stop offset=".766" stop-color="#d88e8c"/><stop offset=".77" stop-color="#d78d8b"/><stop offset=".773" stop-color="#d68d8a"/><stop offset=".777" stop-color="#d58c89"/><stop offset=".781" stop-color="#d48b88"/><stop offset=".785" stop-color="#d38a87"/><stop offset=".789" stop-color="#d38987"/><stop offset=".793" stop-color="#d28886"/><stop offset=".797" stop-color="#d18785"/><stop offset=".801" stop-color="#d08684"/><stop offset=".805" stop-color="#cf8583"/><stop offset=".813" stop-color="#cf8583"/><stop offset=".875" stop-color="#cf8583"/><stop offset="1" stop-color="#cf8583"/></linearGradient></defs><path fill="#999" d="M79.57 163.57a1.55 1.55 0 0 0-.422-.652 1.35 1.35 0 0 0-.64-.344 1.45 1.45 0 0 0-.738.051 1.54 1.54 0 0 0-.786.602c-.12.164-.289.546-.496 1.144q-.157.854-.449 1.246c-.14.192-.316.32-.504.383a1 1 0 0 1-1.012-.242 1.16 1.16 0 0 1-.32-.492q-.229-.675.563-1.508l-.465-.383q-.532.573-.672 1.082c-.09.352-.086.695.031 1.047.153.45.442.785.852.992q.611.323 1.246.113.429-.14.699-.535c.176-.265.363-.707.57-1.324.172-.52.285-.832.328-.934.09-.175.192-.32.29-.41a.95.95 0 0 1 .335-.199.69.69 0 0 1 .586.05c.2.102.332.263.41.493.063.184.06.36.028.547-.04.18-.172.43-.387.738l.508.348c.277-.387.441-.711.492-.996.055-.27.04-.551-.047-.817m1.942 4.868-.489.222.586 1.29-5.144 2.35.219.481 5.148-2.347.586 1.285.492-.223Zm3.02 6.05-3.325 2.149a2.25 2.25 0 0 0-.664 3.101c.719 1.11 2.016 1.383 3.105.676.364-.242.73-.48 1.102-.723.734-.472 1.48-.945 2.223-1.421l-.29-.45-3.324 2.149c-.808.523-1.832.308-2.363-.512-.539-.836-.351-1.824.5-2.375l3.324-2.144Zm4.64 6.774-4.875 3.824.328.418.875 1.113c1.086 1.387 2.973 1.61 4.348.535 1.402-1.101 1.625-2.957.527-4.355l-.258-.32-.617-.797Zm-.098.754.875 1.113c.989 1.262.813 2.633-.43 3.605-1.132.887-2.71.692-3.601-.445l-.875-1.113Zm5.664 5.632-4.297 4.47.383.366 4.297-4.468Zm5.371 4.918a3.086 3.086 0 0 0-4.355.528 3.094 3.094 0 0 0 .535 4.347c1.406 1.106 3.27.875 4.367-.527 1.055-1.344.805-3.289-.547-4.348m-.332.426c1.145.895 1.336 2.461.442 3.602-.985 1.258-2.453 1.32-3.574.453l-.016-.012c-1.172-.918-1.367-2.453-.45-3.62a2.556 2.556 0 0 1 3.598-.423m9.094 6.106.031.02 2.34 1.327.266-.472c-.801-.453-1.598-.895-2.403-1.352-.324-.184-.699-.062-.882.258l-2.73 4.816.46.262 1.524-2.687 1.523.863.266-.469-1.524-.867.942-1.656c.035-.063.12-.078.187-.043m8.871 3.652-2.547-.996a.66.66 0 0 0-.86.383l-1.772 4.527a.665.665 0 0 0 .374.86l2.547.996.196-.493-2.551-1c-.078-.03-.106-.09-.07-.175l.882-2.254 1.63.64.199-.504-1.633-.64.691-1.766a.134.134 0 0 1 .168-.07l.113.043-.035-.012 2.473.965Zm5.742 1.871-1.601-.46a.67.67 0 0 0-.832.456l-1.531 5.313.511.144.715-2.472 1.223.351.87 2.934.657.187-.887-2.945c.914.195 1.864-.375 2.118-1.266a1.817 1.817 0 0 0-1.243-2.242m-1.921.145c.027-.106.078-.114.167-.086l1.602.46c.742.25 1.106.813.887 1.575-.211.73-.84 1.09-1.59.875l-1.738-.5Zm10.746 8.027.109.02 1.05-6.118-.53-.09-.833 4.82-3.285-5.538-.082-.016-1.054 6.125.523.09.824-4.793Zm7.421-5.738a.86.86 0 0 0-.648.277.8.8 0 0 0-.113.184l-2.25 5.68.566.011.832-2.094 3.074.059.739 2.121.57.012-2.031-5.762c-.02-.066-.055-.113-.11-.188a.85.85 0 0 0-.629-.3m-.285.71a.28.28 0 0 1 .266-.16c.113 0 .215.06.266.172l1.02 2.86-2.677-.051Zm11.973 4.864.11-.016-.817-6.148-.535.07.644 4.848-4.789-4.305-.086.012.825 6.16.523-.07-.64-4.825Zm2.898-6.781 1.38 6.039.519-.117 1.379-.317c1.719-.394 2.726-2.004 2.34-3.707-.399-1.738-1.985-2.73-3.72-2.332l-.398.098-.98.215Zm.637.406 1.383-.313c1.562-.359 2.726.383 3.078 1.922a2.535 2.535 0 0 1-1.937 3.07l-1.38.317Zm10.27-3.613a.86.86 0 0 0-.496.5.8.8 0 0 0-.036.214l.07 6.11.528-.207-.023-2.25 2.867-1.11 1.492 1.684.527-.207-4.062-4.562c-.043-.051-.094-.083-.172-.133a.86.86 0 0 0-.695-.04m.007.765c0-.12.079-.21.184-.25a.29.29 0 0 1 .309.059l2.027 2.262-2.492.964Zm15.973-2.164.094-.058-3.367-5.215-.453.293 2.652 4.11-6.168-1.849-.07.047 3.37 5.22.446-.29-2.64-4.086Zm1.977-9.148a3.08 3.08 0 0 0-.29 4.375 3.093 3.093 0 0 0 4.372.281c1.347-1.18 1.465-3.05.289-4.39-1.125-1.286-3.082-1.4-4.371-.266m.355.406c1.094-.96 2.668-.86 3.621.23 1.055 1.2.844 2.657-.215 3.598l-.015.012c-1.121.98-2.664.89-3.64-.227a2.554 2.554 0 0 1 .25-3.613m12.348-4.16.078-.078-4.473-4.301-.375.39 3.528 3.387-6.43-.383-.059.063 4.48 4.305.368-.383-3.508-3.371Zm-.656-9.473a.87.87 0 0 0-.137.692c.027.09.047.14.082.199l3.41 5.074.328-.465-1.254-1.87 1.79-2.497 2.171.59.328-.461-5.898-1.59c-.063-.023-.121-.02-.215-.016a.84.84 0 0 0-.605.344m.425.637a.27.27 0 0 1 .016-.309.3.3 0 0 1 .293-.12l2.934.78-1.555 2.176Zm2.98-5.969.481.25.657-1.254 5.011 2.63.246-.47-5.011-2.629.66-1.253-.48-.25Zm4.235-9.14a3.087 3.087 0 0 0 1.758 4.02 3.1 3.1 0 0 0 4.012-1.763c.652-1.668-.102-3.382-1.766-4.03-1.586-.626-3.379.175-4.004 1.773m.504.195c.527-1.356 1.973-1.988 3.324-1.461 1.485.582 1.97 1.973 1.461 3.293l-.008.02c-.543 1.386-1.953 2.015-3.34 1.472-1.32-.516-1.953-2.004-1.437-3.324"/><use xlink:href="#a" x="136.393" y="76.479" fill="#999"/><use xlink:href="#b" x="146.46" y="76.479" fill="#999"/><use xlink:href="#d" x="127.399" y="77.813" fill="#999"/><use xlink:href="#f" x="155.454" y="77.813" fill="#999"/><use xlink:href="#g" x="119.343" y="80.198" fill="#999"/><use xlink:href="#h" x="164.404" y="80.388" fill="#999"/><use xlink:href="#k" x="112.232" y="83.154" fill="#999"/><use xlink:href="#l" x="176.766" y="86.682" fill="#999"/><use xlink:href="#n" x="105.598" y="87.064" fill="#999"/><use xlink:href="#q" x="184.043" y="92.118" fill="#999"/><use xlink:href="#r" x="94.619" y="96.028" fill="#999"/><use xlink:href="#s" x="91.424" y="99.651" fill="#999"/><use xlink:href="#v" x="191.392" y="99.651" fill="#999"/><use xlink:href="#w" x="85.812" y="107.09" fill="#999"/><use xlink:href="#x" x="196.763" y="106.994" fill="#999"/><use xlink:href="#A" x="81.702" y="114.814" fill="#999"/><use xlink:href="#B" x="201.394" y="115.863" fill="#999"/><use xlink:href="#E" x="79.11" y="122.061" fill="#999"/><use xlink:href="#F" x="204.082" y="123.11" fill="#999"/><use xlink:href="#I" x="77.2" y="129.595" fill="#999"/><path fill="#c37977" d="M141.375 222.02c22.129 0 42.14-9.29 56.64-23.79s23.844-34.507 23.844-56.632-9.343-42.184-23.843-56.684-34.551-23.828-56.676-23.828c-22.13 0-42.14 9.328-56.64 23.828s-23.766 34.55-23.766 56.676c0 22.125 9.265 42.14 23.765 56.64s34.551 23.79 56.676 23.79m57.04-23.391c-14.602 14.601-34.774 23.637-57.056 23.637-22.285 0-42.457-9.036-57.058-23.637-14.602-14.602-23.633-34.774-23.633-57.055 0-22.285 9.031-42.457 23.633-57.058 14.601-14.602 34.773-23.633 57.058-23.633 22.282 0 42.453 9.031 57.055 23.633s23.637 34.773 23.637 57.058c0 22.281-9.035 42.453-23.637 57.055"/><g clip-path="url(#J)"><g clip-path="url(#M)"><path fill="url(#N)" d="M72.145 144.488v-5.613h5.613v5.613Zm0 0"/></g></g><g clip-path="url(#P)"><g clip-path="url(#R)"><path fill="url(#S)" d="M206.855 144.457v-5.613h5.614v5.613Zm0 0"/></g></g><g clip-path="url(#T)"><g clip-path="url(#Y)"><path fill="url(#Z)" d="M115.117 182.848V100.3h51.445v82.547Zm0 0"/></g></g><path fill="#999" d="M125.965 182.824v-36.926l2.605.043v36.883Zm0-41.851v-36.485h2.144l39.387 74.676h-1.3V133.88l2.605.031v48.922h-2.598l-38.933-73.816h1.3v31.945Zm0 0"/><g clip-path="url(#aa)"><g clip-path="url(#ab)"><path fill="url(#ac)" d="M156.258 133.45v-15.99h15.008v15.99Zm0 0"/></g></g><path fill="#999" fill-rule="evenodd" d="M170.977 130.383c.77-1.992-3.614-9.285-4.454-10.207.622-.395 2.293-2.524 5.446-1.996 1.715.289 3.39 1.402 3.969 3.054.69 1.965-.317 3.922-1.13 5.332-.257.454-.363.68-.652 1.051-.629.813-2.297 2.438-3.18 2.766"/></svg>