<svg xmlns="http://www.w3.org/2000/svg" xmlns:xlink="http://www.w3.org/1999/xlink" viewBox="50.44 63.4 189.28 104.44"><defs><path id="e" d="M2.328-13.812h6.656v-1.329c-2.265 0-4.5.016-6.734.016-.906 0-1.578.703-1.578 1.61V0h1.312v-7.531h4.282V-8.86H1.984v-4.657c0-.171.157-.296.344-.296m0 0"/><path id="f" d="M8.984-15.125H2.297c-.875 0-1.625.719-1.625 1.625v11.875C.672-.75 1.422 0 2.297 0h6.687v-1.297H2.297c-.203 0-.313-.125-.313-.36V-7.53h4.282v-1.33H1.984v-4.64c0-.156.157-.297.313-.297h.281-.094 6.5Zm0 0"/><path id="g" d="M6.375-15.125H2.328c-.906 0-1.656.719-1.656 1.625V0h1.312v-6.281h3.11L9.125 0h1.64L6.704-6.312c2.281-.157 4.11-2.141 4.11-4.391a4.43 4.43 0 0 0-4.438-4.422M1.985-13.5c0-.25.109-.297.343-.297h4.047c1.906.094 3.14 1.14 3.14 3.094 0 1.86-1.234 3.125-3.14 3.125h-4.39Zm0 0"/><path id="h" d="M12.125 0h.281v-15.14h-1.328v11.937L.891-15.172H.67V0h1.313v-11.86Zm0 0"/><path id="i" d="M7.75-15.125c-.61 0-1.187.281-1.562.703a2.2 2.2 0 0 0-.282.469L.672 0h1.406L4-5.14h7.5L13.406 0h1.39L9.564-13.953c-.047-.172-.141-.281-.282-.469a2.06 2.06 0 0 0-1.531-.703m-.656 1.75a.65.65 0 0 1 .625-.39c.281 0 .547.124.656.39L11-6.437H4.469Zm0 0"/><path id="j" d="M.672-15.125V0h4.75C9.719 0 13-3.297 13-7.562c0-4.329-3.234-7.563-7.578-7.563l-1 .031-2.438-.031Zm1.312 1.328h3.438c3.937 0 6.281 2.39 6.281 6.235 0 3.515-2.75 6.265-6.281 6.265H1.984Zm0 0"/><path id="k" d="M8.266-15.125C4.03-15.125.672-11.75.672-7.562S4.078 0 8.266 0c4.343 0 7.578-3.25 7.578-7.61 0-4.156-3.422-7.515-7.578-7.515m0 1.328c3.53 0 6.25 2.719 6.25 6.235 0 3.906-2.72 6.234-6.188 6.265h-.015c-3.657 0-6.329-2.656-6.329-6.281 0-3.453 2.813-6.219 6.282-6.219m0 0"/><path id="l" d="M.703-15.125v1.328h3.438V0h1.297v-13.797H8.89v-1.328Zm0 0"/><path id="n" d="m.766-.875.5-.781C2.484-.86 3.656-.453 4.75-.453c1.016 0 1.813-.266 2.375-.797.5-.453.766-1.047.766-1.734q0-1.29-1.125-2.11c-.47-.328-1.313-.718-2.532-1.203l-.656-.25c-.25-.094-.453-.187-.64-.266-.47-.218-.844-.421-1.141-.64C1.047-8 .672-8.672.672-9.484c0-1.047.453-1.844 1.312-2.391.672-.406 1.438-.61 2.329-.61 1.015 0 1.921.126 2.703.407.25.062.484.14.687.25.047.031.125.062.172.11.016.015.031.015.047.03l.016.016-.532.766v-.016c-.015 0-.031-.031-.047-.031l-.125-.063a2.6 2.6 0 0 0-.593-.218c-.672-.22-1.438-.328-2.328-.328h-.204c-.109.015-.218.03-.343.03a4.3 4.3 0 0 0-.922.25c-.828.36-1.235.954-1.235 1.798 0 .53.25.953.766 1.312.39.281 1.11.61 2.188 1l.375.156.375.141c.28.125.515.234.75.328.546.266 1 .516 1.359.797.937.703 1.39 1.625 1.39 2.766 0 .906-.328 1.703-.984 2.343C7.078.11 6.062.47 4.75.47 3.484.469 2.14.016.766-.875m0 0"/><path id="o" d="M8.375-1.469c-.719.657-1.578.985-2.562.985-1.047 0-1.938-.375-2.704-1.125-.75-.735-1.125-1.641-1.125-2.703v-6.813h6.391v-.906h-6.39v-2.172h-.938v9.89c0 1.313.469 2.438 1.422 3.36C3.39-.016 4.5.453 5.813.453c.953 0 1.796-.25 2.562-.75Zm0 0"/><path id="p" d="M11.25-12.031v6.984c0 1.281-.437 2.375-1.36 3.281-.906.907-2 1.344-3.28 1.344-1.282 0-2.36-.437-3.282-1.344-.89-.906-1.344-2-1.344-3.28v-6.985h-.937v6.984c0 1.547.562 2.86 1.625 3.938C3.782-.016 5.094.516 6.609.516c1.547 0 2.86-.532 3.938-1.625 1.094-1.078 1.625-2.391 1.625-3.938v-6.984Zm0 0"/><path id="q" d="M12.703-6.016c0 1.547-.531 2.844-1.625 3.922C10-1 8.703-.454 7.172-.454q-2.32 0-3.938-1.64C2.141-3.172 1.61-4.469 1.61-6.016c0-1.53.532-2.843 1.625-3.921 1.079-1.094 2.391-1.626 3.938-1.626 1.531 0 2.828.532 3.906 1.626 1.094 1.078 1.625 2.39 1.625 3.921m0-3.328c-.562-.953-1.344-1.703-2.312-2.281a6.3 6.3 0 0 0-3.22-.875q-2.694 0-4.593 1.922C1.313-9.328.672-7.797.672-6.016s.64 3.329 1.906 4.579C3.844-.157 5.375.468 7.172.468c1.766 0 3.312-.625 4.562-1.906 1.266-1.25 1.907-2.797 1.907-4.579v-9.39h-.938Zm0 0"/><path id="r" d="M1.047 0h.937v-12.031h-.937Zm0 0"/><path id="s" d="M7.172-11.562c-1.547 0-2.86.53-3.938 1.624C2.141-8.858 1.61-7.546 1.61-6.015c0 1.547.532 2.844 1.625 3.922q1.618 1.64 3.938 1.64c1.53 0 2.827-.547 3.905-1.64 1.094-1.078 1.625-2.375 1.625-3.922 0-1.53-.531-2.843-1.625-3.921C10-11.03 8.703-11.562 7.172-11.562m0 12.03c-1.797 0-3.328-.64-4.594-1.905C1.313-2.687.672-4.235.672-6.016s.64-3.312 1.906-4.562Q4.477-12.5 7.172-12.5c1.766 0 3.312.64 4.562 1.922 1.266 1.25 1.907 2.781 1.907 4.562S13-2.687 11.734-1.437C10.484-.173 8.938.468 7.172.468m0 0"/><clipPath id="a"><path d="M121 65h40v62h-40Zm0 0"/></clipPath><clipPath id="b"><path d="m123.863 96.184 18.938.023 1.445 2.617h-20.258Zm.004 30.707-2.219.007.082-61.609h38.305l.008 2.188-36.148.02Zm0 0"/></clipPath><clipPath id="t"><path d="M152 76h12v14h-12Zm0 0"/></clipPath><clipPath id="u"><path d="M157.453 76.656c1.156.239 1.738 1.203 2.36 2.239q.298.499.574.992c.73 1.297 1.48 2.601 2.133 4.004.714 1.546 1.363 3.039.27 4.64-.388.57-.888 1.059-1.802 1.27-1.363.312-2.468-.25-3.379-1.067l-.816-.75c-1.703-1.539-2.258-2.214-3.547-4.093-.234-.344-.414-.59-.621-.942-1.973-3.355 1.758-6.93 4.828-6.293" clip-rule="evenodd"/></clipPath><linearGradient id="d" x1="114.02" x2="168.198" y1="207.65" y2="166.721" gradientTransform="matrix(.99811 0 0 -.99811 0 282.93)" gradientUnits="userSpaceOnUse"><stop offset="0" stop-color="#c37977"/><stop offset=".125" stop-color="#c37977"/><stop offset=".141" stop-color="#c37977"/><stop offset=".145" stop-color="#c47a78"/><stop offset=".148" stop-color="#c47a78"/><stop offset=".152" stop-color="#c57b79"/><stop offset=".156" stop-color="#c67c7a"/><stop offset=".16" stop-color="#c77d7b"/><stop offset=".164" stop-color="#c87f7c"/><stop offset=".168" stop-color="#c9807d"/><stop offset=".172" stop-color="#cb817f"/><stop offset=".176" stop-color="#cc8280"/><stop offset=".18" stop-color="#cd8381"/><stop offset=".184" stop-color="#ce8482"/><stop offset=".188" stop-color="#cf8583"/><stop offset=".191" stop-color="#d08684"/><stop offset=".195" stop-color="#d18785"/><stop offset=".199" stop-color="#d28886"/><stop offset=".203" stop-color="#d38a87"/><stop offset=".207" stop-color="#d48b88"/><stop offset=".211" stop-color="#d58c89"/><stop offset=".215" stop-color="#d68d8a"/><stop offset=".219" stop-color="#d78e8b"/><stop offset=".223" stop-color="#d98f8d"/><stop offset=".227" stop-color="#da908e"/><stop offset=".23" stop-color="#db918f"/><stop offset=".234" stop-color="#dc9290"/><stop offset=".238" stop-color="#dd9391"/><stop offset=".242" stop-color="#de9592"/><stop offset=".246" stop-color="#df9693"/><stop offset=".25" stop-color="#e09794"/><stop offset=".254" stop-color="#e19895"/><stop offset=".258" stop-color="#e29996"/><stop offset=".262" stop-color="#e39a97"/><stop offset=".266" stop-color="#e49b98"/><stop offset=".27" stop-color="#e59c99"/><stop offset=".273" stop-color="#e79d9b"/><stop offset=".277" stop-color="#e89e9c"/><stop offset=".281" stop-color="#e9a09d"/><stop offset=".285" stop-color="#eaa19e"/><stop offset=".289" stop-color="#eba29f"/><stop offset=".293" stop-color="#eca3a0"/><stop offset=".297" stop-color="#eda4a1"/><stop offset=".301" stop-color="#eea5a2"/><stop offset=".305" stop-color="#efa6a3"/><stop offset=".309" stop-color="#f0a7a4"/><stop offset=".313" stop-color="#f1a8a5"/><stop offset=".316" stop-color="#f2a9a6"/><stop offset=".32" stop-color="#f3aaa7"/><stop offset=".324" stop-color="#f3aaa7"/><stop offset=".328" stop-color="#f2a9a6"/><stop offset=".332" stop-color="#f1a8a5"/><stop offset=".336" stop-color="#f0a7a4"/><stop offset=".34" stop-color="#efa6a3"/><stop offset=".344" stop-color="#eea5a2"/><stop offset=".348" stop-color="#eda4a1"/><stop offset=".352" stop-color="#eca3a0"/><stop offset=".355" stop-color="#eba19f"/><stop offset=".359" stop-color="#e9a09d"/><stop offset=".363" stop-color="#e89f9c"/><stop offset=".367" stop-color="#e79e9b"/><stop offset=".371" stop-color="#e69d9a"/><stop offset=".375" stop-color="#e59c99"/><stop offset=".379" stop-color="#e49b98"/><stop offset=".383" stop-color="#e39997"/><stop offset=".387" stop-color="#e29896"/><stop offset=".391" stop-color="#e09794"/><stop offset=".395" stop-color="#df9693"/><stop offset=".398" stop-color="#de9592"/><stop offset=".402" stop-color="#dd9491"/><stop offset=".406" stop-color="#dc9390"/><stop offset=".41" stop-color="#db918f"/><stop offset=".414" stop-color="#da908e"/><stop offset=".418" stop-color="#d98f8d"/><stop offset=".422" stop-color="#d78e8b"/><stop offset=".426" stop-color="#d68d8a"/><stop offset=".43" stop-color="#d58c89"/><stop offset=".434" stop-color="#d48b88"/><stop offset=".438" stop-color="#d38987"/><stop offset=".441" stop-color="#d28886"/><stop offset=".445" stop-color="#d18785"/><stop offset=".449" stop-color="#d08684"/><stop offset=".453" stop-color="#ce8583"/><stop offset=".457" stop-color="#cd8481"/><stop offset=".461" stop-color="#cc8280"/><stop offset=".465" stop-color="#cb817f"/><stop offset=".469" stop-color="#ca807e"/><stop offset=".473" stop-color="#c97f7d"/><stop offset=".477" stop-color="#c87e7c"/><stop offset=".48" stop-color="#c77d7b"/><stop offset=".484" stop-color="#c67c7a"/><stop offset=".488" stop-color="#c47a78"/><stop offset=".492" stop-color="#c37977"/><stop offset=".496" stop-color="#c47a78"/><stop offset=".5" stop-color="#c57b79"/><stop offset=".504" stop-color="#c67c7a"/><stop offset=".508" stop-color="#c87e7c"/><stop offset=".512" stop-color="#c97f7d"/><stop offset=".516" stop-color="#ca807e"/><stop offset=".52" stop-color="#cb817f"/><stop offset=".523" stop-color="#cc8280"/><stop offset=".527" stop-color="#cd8481"/><stop offset=".531" stop-color="#cf8583"/><stop offset=".535" stop-color="#d08684"/><stop offset=".539" stop-color="#d18785"/><stop offset=".543" stop-color="#d28886"/><stop offset=".547" stop-color="#d38a87"/><stop offset=".551" stop-color="#d48b88"/><stop offset=".555" stop-color="#d68c8a"/><stop offset=".559" stop-color="#d78d8b"/><stop offset=".563" stop-color="#d88e8c"/><stop offset=".566" stop-color="#d9908d"/><stop offset=".57" stop-color="#da918e"/><stop offset=".574" stop-color="#db928f"/><stop offset=".578" stop-color="#dd9391"/><stop offset=".582" stop-color="#de9492"/><stop offset=".586" stop-color="#df9693"/><stop offset=".59" stop-color="#e09794"/><stop offset=".594" stop-color="#e19895"/><stop offset=".598" stop-color="#e29996"/><stop offset=".602" stop-color="#e49a98"/><stop offset=".605" stop-color="#e59c99"/><stop offset=".609" stop-color="#e69d9a"/><stop offset=".613" stop-color="#e79e9b"/><stop offset=".617" stop-color="#e89f9c"/><stop offset=".621" stop-color="#e9a09d"/><stop offset=".625" stop-color="#eba29f"/><stop offset=".629" stop-color="#eca3a0"/><stop offset=".633" stop-color="#eda4a1"/><stop offset=".637" stop-color="#eea5a2"/><stop offset=".641" stop-color="#efa6a3"/><stop offset=".645" stop-color="#f1a8a5"/><stop offset=".648" stop-color="#f2a9a6"/><stop offset=".652" stop-color="#f3aaa7"/><stop offset=".656" stop-color="#f4aba8"/><stop offset=".66" stop-color="#f3aaa7"/><stop offset=".664" stop-color="#f2a9a6"/><stop offset=".668" stop-color="#f1a8a5"/><stop offset=".672" stop-color="#f0a7a4"/><stop offset=".676" stop-color="#efa6a3"/><stop offset=".68" stop-color="#eea5a2"/><stop offset=".684" stop-color="#eda4a1"/><stop offset=".688" stop-color="#eca3a0"/><stop offset=".691" stop-color="#eba29f"/><stop offset=".695" stop-color="#eaa19e"/><stop offset=".699" stop-color="#e9a09d"/><stop offset=".703" stop-color="#e89f9d"/><stop offset=".707" stop-color="#e89e9c"/><stop offset=".711" stop-color="#e79d9b"/><stop offset=".715" stop-color="#e69c9a"/><stop offset=".719" stop-color="#e59b99"/><stop offset=".723" stop-color="#e49a98"/><stop offset=".727" stop-color="#e39997"/><stop offset=".73" stop-color="#e29896"/><stop offset=".734" stop-color="#e19795"/><stop offset=".738" stop-color="#e09694"/><stop offset=".742" stop-color="#df9693"/><stop offset=".746" stop-color="#de9592"/><stop offset=".75" stop-color="#dd9491"/><stop offset=".754" stop-color="#dc9390"/><stop offset=".758" stop-color="#db928f"/><stop offset=".762" stop-color="#da918e"/><stop offset=".766" stop-color="#d9908d"/><stop offset=".77" stop-color="#d88f8c"/><stop offset=".773" stop-color="#d78e8b"/><stop offset=".777" stop-color="#d68d8a"/><stop offset=".781" stop-color="#d58c89"/><stop offset=".785" stop-color="#d48b88"/><stop offset=".789" stop-color="#d38a87"/><stop offset=".793" stop-color="#d28986"/><stop offset=".797" stop-color="#d18885"/><stop offset=".801" stop-color="#d08784"/><stop offset=".805" stop-color="#cf8684"/><stop offset=".809" stop-color="#cf8583"/><stop offset=".813" stop-color="#ce8482"/><stop offset=".816" stop-color="#cd8381"/><stop offset=".82" stop-color="#cc8280"/><stop offset=".824" stop-color="#cb817f"/><stop offset=".828" stop-color="#ca807e"/><stop offset=".832" stop-color="#c97f7d"/><stop offset=".836" stop-color="#c87e7c"/><stop offset=".84" stop-color="#c77d7b"/><stop offset=".844" stop-color="#c67c7a"/><stop offset=".848" stop-color="#c57b79"/><stop offset=".852" stop-color="#c47a78"/><stop offset=".859" stop-color="#c47a78"/><stop offset=".875" stop-color="#c37977"/><stop offset="1" stop-color="#c37977"/></linearGradient><linearGradient id="v" x1="165.816" x2="149.667" y1="204.335" y2="195.505" gradientTransform="matrix(.99811 0 0 -.99811 0 282.93)" gradientUnits="userSpaceOnUse"><stop offset="0" stop-color="#cf8583"/><stop offset=".125" stop-color="#cf8583"/><stop offset=".156" stop-color="#cf8583"/><stop offset=".164" stop-color="#cf8583"/><stop offset=".168" stop-color="#d18785"/><stop offset=".172" stop-color="#d28886"/><stop offset=".176" stop-color="#d38987"/><stop offset=".18" stop-color="#d48a88"/><stop offset=".184" stop-color="#d58b89"/><stop offset=".188" stop-color="#d68c8a"/><stop offset=".191" stop-color="#d78d8b"/><stop offset=".195" stop-color="#d88e8c"/><stop offset=".199" stop-color="#d98f8d"/><stop offset=".203" stop-color="#da908e"/><stop offset=".207" stop-color="#da918f"/><stop offset=".211" stop-color="#db928f"/><stop offset=".215" stop-color="#dc9390"/><stop offset=".219" stop-color="#dd9491"/><stop offset=".223" stop-color="#de9592"/><stop offset=".227" stop-color="#df9693"/><stop offset=".23" stop-color="#e09794"/><stop offset=".234" stop-color="#e19895"/><stop offset=".238" stop-color="#e29996"/><stop offset=".242" stop-color="#e39a97"/><stop offset=".246" stop-color="#e49b98"/><stop offset=".25" stop-color="#e59c99"/><stop offset=".254" stop-color="#e69d9a"/><stop offset=".258" stop-color="#e79e9b"/><stop offset=".262" stop-color="#e89f9c"/><stop offset=".266" stop-color="#e9a09d"/><stop offset=".27" stop-color="#eaa19e"/><stop offset=".273" stop-color="#eba29f"/><stop offset=".277" stop-color="#eca3a0"/><stop offset=".281" stop-color="#eda4a1"/><stop offset=".285" stop-color="#eea5a2"/><stop offset=".289" stop-color="#efa6a3"/><stop offset=".293" stop-color="#f0a7a4"/><stop offset=".297" stop-color="#f1a8a5"/><stop offset=".301" stop-color="#f2a9a6"/><stop offset=".305" stop-color="#f3aaa7"/><stop offset=".309" stop-color="#f4aba8"/><stop offset=".313" stop-color="#f5aca9"/><stop offset=".316" stop-color="#f6adaa"/><stop offset=".32" stop-color="#f7aeab"/><stop offset=".324" stop-color="#f8afac"/><stop offset=".328" stop-color="#f9b0ad"/><stop offset=".332" stop-color="#f8afac"/><stop offset=".336" stop-color="#f7aeab"/><stop offset=".34" stop-color="#f6adaa"/><stop offset=".344" stop-color="#f5aca9"/><stop offset=".348" stop-color="#f5aca9"/><stop offset=".352" stop-color="#f4aba8"/><stop offset=".355" stop-color="#f3aaa7"/><stop offset=".359" stop-color="#f2a9a6"/><stop offset=".363" stop-color="#f1a8a5"/><stop offset=".367" stop-color="#f0a7a4"/><stop offset=".371" stop-color="#efa6a3"/><stop offset=".375" stop-color="#eea5a2"/><stop offset=".379" stop-color="#eea4a2"/><stop offset=".383" stop-color="#eda3a1"/><stop offset=".387" stop-color="#eca3a0"/><stop offset=".391" stop-color="#eba29f"/><stop offset=".395" stop-color="#eaa19e"/><stop offset=".398" stop-color="#e9a09d"/><stop offset=".402" stop-color="#e89f9c"/><stop offset=".406" stop-color="#e89e9c"/><stop offset=".41" stop-color="#e79d9b"/><stop offset=".414" stop-color="#e69c9a"/><stop offset=".418" stop-color="#e59b99"/><stop offset=".422" stop-color="#e49a98"/><stop offset=".426" stop-color="#e39a97"/><stop offset=".43" stop-color="#e29996"/><stop offset=".434" stop-color="#e19895"/><stop offset=".438" stop-color="#e19795"/><stop offset=".441" stop-color="#e09694"/><stop offset=".445" stop-color="#df9593"/><stop offset=".449" stop-color="#de9492"/><stop offset=".453" stop-color="#dd9391"/><stop offset=".457" stop-color="#dc9290"/><stop offset=".461" stop-color="#db918f"/><stop offset=".465" stop-color="#da918e"/><stop offset=".469" stop-color="#da908e"/><stop offset=".473" stop-color="#d98f8d"/><stop offset=".477" stop-color="#d88e8c"/><stop offset=".48" stop-color="#d98f8d"/><stop offset=".484" stop-color="#da908e"/><stop offset=".488" stop-color="#db918f"/><stop offset=".492" stop-color="#db928f"/><stop offset=".496" stop-color="#dc9290"/><stop offset=".5" stop-color="#dd9391"/><stop offset=".504" stop-color="#de9492"/><stop offset=".508" stop-color="#df9593"/><stop offset=".512" stop-color="#e09694"/><stop offset=".516" stop-color="#e09794"/><stop offset=".52" stop-color="#e19895"/><stop offset=".523" stop-color="#e29896"/><stop offset=".527" stop-color="#e39997"/><stop offset=".531" stop-color="#e49a98"/><stop offset=".535" stop-color="#e59b99"/><stop offset=".539" stop-color="#e59c99"/><stop offset=".543" stop-color="#e69d9a"/><stop offset=".547" stop-color="#e79e9b"/><stop offset=".551" stop-color="#e89e9c"/><stop offset=".555" stop-color="#e99f9d"/><stop offset=".559" stop-color="#eaa09e"/><stop offset=".563" stop-color="#eaa19e"/><stop offset=".566" stop-color="#eba29f"/><stop offset=".57" stop-color="#eca3a0"/><stop offset=".574" stop-color="#eda4a1"/><stop offset=".578" stop-color="#eea4a2"/><stop offset=".582" stop-color="#efa5a3"/><stop offset=".586" stop-color="#efa6a3"/><stop offset=".59" stop-color="#f0a7a4"/><stop offset=".594" stop-color="#f1a8a5"/><stop offset=".598" stop-color="#f2a9a6"/><stop offset=".602" stop-color="#f3aaa7"/><stop offset=".605" stop-color="#f4aba8"/><stop offset=".609" stop-color="#f4aba8"/><stop offset=".613" stop-color="#f5aca9"/><stop offset=".617" stop-color="#f6adaa"/><stop offset=".621" stop-color="#f7aeab"/><stop offset=".625" stop-color="#f8afac"/><stop offset=".632" stop-color="#f8afac"/><stop offset=".633" stop-color="#f8afac"/><stop offset=".637" stop-color="#f7aeab"/><stop offset=".641" stop-color="#f6adaa"/><stop offset=".645" stop-color="#f5aca9"/><stop offset=".648" stop-color="#f4aba8"/><stop offset=".652" stop-color="#f4aaa8"/><stop offset=".656" stop-color="#f3a9a7"/><stop offset=".66" stop-color="#f2a9a6"/><stop offset=".664" stop-color="#f1a8a5"/><stop offset=".668" stop-color="#f0a7a4"/><stop offset=".672" stop-color="#efa6a3"/><stop offset=".676" stop-color="#eea5a2"/><stop offset=".68" stop-color="#eda4a1"/><stop offset=".684" stop-color="#eca3a0"/><stop offset=".688" stop-color="#eba29f"/><stop offset=".691" stop-color="#eaa19e"/><stop offset=".695" stop-color="#e9a09d"/><stop offset=".699" stop-color="#e89f9c"/><stop offset=".703" stop-color="#e79e9b"/><stop offset=".707" stop-color="#e69d9a"/><stop offset=".711" stop-color="#e59c99"/><stop offset=".715" stop-color="#e49b98"/><stop offset=".719" stop-color="#e49a98"/><stop offset=".723" stop-color="#e39997"/><stop offset=".727" stop-color="#e29896"/><stop offset=".73" stop-color="#e19795"/><stop offset=".734" stop-color="#e09694"/><stop offset=".738" stop-color="#df9593"/><stop offset=".742" stop-color="#de9492"/><stop offset=".746" stop-color="#dd9391"/><stop offset=".75" stop-color="#dc9290"/><stop offset=".754" stop-color="#db918f"/><stop offset=".758" stop-color="#da908e"/><stop offset=".762" stop-color="#d98f8d"/><stop offset=".766" stop-color="#d88e8c"/><stop offset=".77" stop-color="#d78e8b"/><stop offset=".773" stop-color="#d68d8a"/><stop offset=".777" stop-color="#d58c89"/><stop offset=".781" stop-color="#d48b88"/><stop offset=".785" stop-color="#d38a87"/><stop offset=".789" stop-color="#d38987"/><stop offset=".793" stop-color="#d28886"/><stop offset=".797" stop-color="#d18785"/><stop offset=".801" stop-color="#d08684"/><stop offset=".805" stop-color="#cf8583"/><stop offset=".813" stop-color="#cf8583"/><stop offset=".875" stop-color="#cf8583"/><stop offset="1" stop-color="#cf8583"/></linearGradient></defs><g clip-path="url(#a)"><g clip-path="url(#b)"><path fill="url(#d)" d="M121.648 126.898V65.29h38.395v61.61Zm0 0"/></g></g><path fill="#999" d="M129.746 126.883V99.32l1.941.035v27.528Zm0-31.235v-27.23h1.602l29.394 55.73h-.972V90.352l1.945.023v36.512h-1.938L130.72 71.793h.969v23.844Zm0 0"/><g fill="#999"><use xlink:href="#e" x="51.758" y="165.558"/><use xlink:href="#f" x="61.414" y="165.558"/><use xlink:href="#g" x="71.069" y="165.558"/><use xlink:href="#h" x="82.562" y="165.558"/><use xlink:href="#i" x="95.661" y="165.558"/><use xlink:href="#h" x="111.133" y="165.558"/><use xlink:href="#j" x="124.232" y="165.558"/></g><g fill="#999"><use xlink:href="#i" x="135.708" y="165.558"/><use xlink:href="#h" x="160.277" y="165.558"/><use xlink:href="#k" x="173.376" y="165.558"/><use xlink:href="#h" x="189.895" y="165.558"/><use xlink:href="#i" x="202.994" y="165.558"/></g><use xlink:href="#l" x="214.982" y="165.558" fill="#999"/><use xlink:href="#k" x="221.411" y="165.558" fill="#999"/><g fill="#999"><use xlink:href="#n" x="112.764" y="146.04"/><use xlink:href="#o" x="122.239" y="146.04"/><use xlink:href="#p" x="131.664" y="146.04"/><use xlink:href="#q" x="144.885" y="146.04"/><use xlink:href="#r" x="159.574" y="146.04"/><use xlink:href="#s" x="162.612" y="146.04"/></g><g clip-path="url(#t)"><g clip-path="url(#u)"><path fill="url(#v)" d="M150.652 90.113V76.02h13.23v14.093Zm0 0"/></g></g><path fill="#999" fill-rule="evenodd" d="M163.629 87.41c.68-1.758-3.184-8.187-3.926-8.996.55-.348 2.024-2.227 4.8-1.758 1.513.254 2.99 1.23 3.5 2.688.606 1.734-.28 3.46-.995 4.703-.23.398-.32.598-.574.926-.555.715-2.028 2.148-2.805 2.437"/></svg>